<svg width="1600" height="420" viewBox="0 0 1600 420" fill="none" xmlns="http://www.w3.org/2000/svg">
  <defs>
    <!-- WHITE BACKGROUND -->
    <linearGradient id="bg" x1="0" y1="0" x2="1600" y2="420" gradientUnits="userSpaceOnUse">
      <stop stop-color="#FFFFFF"/>
      <stop offset="0.55" stop-color="#F5F7FB"/>
      <stop offset="1" stop-color="#FFFFFF"/>
    </linearGradient>

    <filter id="soft" x="-50%" y="-50%" width="200%" height="200%">
      <feGaussianBlur stdDeviation="18" result="blur"/>
      <feColorMatrix in="blur" type="matrix"
        values="1 0 0 0 0
                0 1 0 0 0
                0 0 1 0 0
                0 0 0 .18 0" />
      <feBlend in="SourceGraphic" mode="normal"/>
    </filter>

    <filter id="cardShadow" x="-50%" y="-50%" width="200%" height="200%">
      <feDropShadow dx="0" dy="18" stdDeviation="18" flood-color="#000000" flood-opacity="0.18"/>
    </filter>
  </defs>

  <!-- Background -->
  <rect width="1600" height="420" rx="28" fill="url(#bg)"/>

  <!-- Soft blobs -->
  <circle cx="260" cy="120" r="130" fill="#7C3AED" opacity="0.18" filter="url(#soft)"/>
  <circle cx="1360" cy="320" r="160" fill="#22C55E" opacity="0.18" filter="url(#soft)"/>
  <circle cx="1260" cy="120" r="90" fill="#38BDF8" opacity="0.18" filter="url(#soft)"/>

  <!-- Grid -->
  <g opacity="0.08">
    <path d="M0 84H1600" stroke="#000000"/>
    <path d="M0 168H1600" stroke="#000000"/>
    <path d="M0 252H1600" stroke="#000000"/>
    <path d="M0 336H1600" stroke="#000000"/>
    <path d="M160 0V420" stroke="#000000"/>
    <path d="M320 0V420" stroke="#000000"/>
    <path d="M480 0V420" stroke="#000000"/>
    <path d="M640 0V420" stroke="#000000"/>
    <path d="M800 0V420" stroke="#000000"/>
    <path d="M960 0V420" stroke="#000000"/>
    <path d="M1120 0V420" stroke="#000000"/>
    <path d="M1280 0V420" stroke="#000000"/>
    <path d="M1440 0V420" stroke="#000000"/>
  </g>

  <!-- Left: headline badge -->
  <g transform="translate(56 56)">
    <rect x="0" y="0" width="190" height="38" rx="19" fill="rgba(255,255,255,0.65)" stroke="rgba(0,0,0,0.12)"/>
    <circle cx="22" cy="19" r="6" fill="#00AEEF"/>
  </g>

  <!-- Right: floating cards -->
  <g transform="translate(930 78)" filter="url(#cardShadow)">
    <rect x="0" y="0" width="560" height="284" rx="18" fill="rgba(255,255,255,0.85)" stroke="rgba(0,0,0,0.12)"/>

    <g transform="translate(24 62)">
      <rect x="0" y="0" width="160" height="42" rx="12" fill="rgba(255,255,255,0.9)" stroke="rgba(0,0,0,0.12)"/>
      <rect x="178" y="0" width="190" height="42" rx="12" fill="rgba(255,255,255,0.9)" stroke="rgba(0,0,0,0.12)"/>
      <rect x="386" y="0" width="150" height="42" rx="12" fill="rgba(255,255,255,0.9)" stroke="rgba(0,0,0,0.12)"/>
    </g>

    <g transform="translate(24 126)">
      <rect x="0" y="0" width="512" height="134" rx="14" fill="rgba(245,247,251,0.95)" stroke="rgba(0,0,0,0.12)"/>
      <path d="M22 106C62 86 96 96 128 78C160 60 200 70 230 56C260 42 296 48 324 36C352 24 390 34 420 22C452 10 488 22 496 18"
            stroke="#00AEEF" stroke-width="4" fill="none" stroke-linecap="round"/>
      <g opacity="0.55">
        <circle cx="22" cy="106" r="4" fill="#00AEEF"/>
        <circle cx="128" cy="78" r="4" fill="#00AEEF"/>
        <circle cx="230" cy="56" r="4" fill="#00AEEF"/>
        <circle cx="324" cy="36" r="4" fill="#00AEEF"/>
        <circle cx="420" cy="22" r="4" fill="#00AEEF"/>
        <circle cx="496" cy="18" r="4" fill="#00AEEF"/>
      </g>
    </g>
  </g>

  <!-- Subtle invoice icon left -->
  <g transform="translate(88 148)" opacity="0.95">
    <rect x="0" y="0" width="120" height="150" rx="16" fill="#FFFFFF" stroke="rgba(0,0,0,0.14)"/>
    <rect x="20" y="26" width="80" height="10" rx="5" fill="#CBD5E1"/>
    <rect x="20" y="50" width="62" height="8" rx="4" fill="#CBD5E1"/>
    <rect x="20" y="68" width="70" height="8" rx="4" fill="#CBD5E1"/>
    <rect x="20" y="86" width="54" height="8" rx="4" fill="#CBD5E1"/>
    <rect x="20" y="108" width="80" height="18" rx="9" fill="#00AEEF"/>
  </g>

  <!-- CENTER TITLE (TAJAM, NO BLUR) -->
  <text
    x="800"
    y="240"
    text-anchor="middle"
    fill="#00AEEF"
    opacity="1"
    font-size="112"
    font-weight="900"
    letter-spacing="12"
    font-family="Inter, system-ui, -apple-system, BlinkMacSystemFont, sans-serif"
  >
    INVOICE APP
  </text>
</svg>
