<svg width="1600" height="420" viewBox="0 0 1600 420" fill="none" xmlns="http://www.w3.org/2000/svg">
  <defs>
    <linearGradient id="bg" x1="0" y1="0" x2="1600" y2="420" gradientUnits="userSpaceOnUse">
      <stop stop-color="#0B1220"/>
      <stop offset="0.55" stop-color="#111B2E"/>
      <stop offset="1" stop-color="#0B1220"/>
    </linearGradient>

    <linearGradient id="accent" x1="0" y1="0" x2="1" y2="1">
      <stop stop-color="#7C3AED"/>
      <stop offset="1" stop-color="#22C55E"/>
    </linearGradient>

    <filter id="soft" x="-50%" y="-50%" width="200%" height="200%">
      <feGaussianBlur stdDeviation="18" result="blur"/>
      <feColorMatrix in="blur" type="matrix"
        values="1 0 0 0 0
                0 1 0 0 0
                0 0 1 0 0
                0 0 0 .18 0" />
      <feBlend in="SourceGraphic" mode="normal"/>
    </filter>

    <filter id="cardShadow" x="-50%" y="-50%" width="200%" height="200%">
      <feDropShadow dx="0" dy="18" stdDeviation="18" flood-color="#000000" flood-opacity="0.22"/>
    </filter>
  </defs>

  <!-- Background -->
  <rect width="1600" height="420" rx="28" fill="url(#bg)"/>

  <!-- Soft blobs -->
  <circle cx="260" cy="120" r="130" fill="#7C3AED" filter="url(#soft)"/>
  <circle cx="1360" cy="320" r="160" fill="#22C55E" filter="url(#soft)"/>
  <circle cx="1260" cy="120" r="90" fill="#38BDF8" filter="url(#soft)"/>

  <!-- Grid -->
  <g opacity="0.16">
    <path d="M0 84H1600" stroke="#FFFFFF"/>
    <path d="M0 168H1600" stroke="#FFFFFF"/>
    <path d="M0 252H1600" stroke="#FFFFFF"/>
    <path d="M0 336H1600" stroke="#FFFFFF"/>
    <path d="M160 0V420" stroke="#FFFFFF"/>
    <path d="M320 0V420" stroke="#FFFFFF"/>
    <path d="M480 0V420" stroke="#FFFFFF"/>
    <path d="M640 0V420" stroke="#FFFFFF"/>
    <path d="M800 0V420" stroke="#FFFFFF"/>
    <path d="M960 0V420" stroke="#FFFFFF"/>
    <path d="M1120 0V420" stroke="#FFFFFF"/>
    <path d="M1280 0V420" stroke="#FFFFFF"/>
    <path d="M1440 0V420" stroke="#FFFFFF"/>
  </g>

  <!-- Left: headline badge -->
  <g transform="translate(56 56)">
    <rect x="0" y="0" width="190" height="38" rx="19" fill="rgba(255,255,255,0.08)" stroke="rgba(255,255,255,0.14)"/>
    <circle cx="22" cy="19" r="6" fill="url(#accent)"/>
    <text x="40" y="24" font-family="ui-sans-serif, system-ui, -apple-system, Segoe UI, Roboto" font-size="14" fill="rgba(255,255,255,0.85)">
      Invoice Dashboard
    </text>
  </g>

  <!-- Right: floating cards -->
  <g transform="translate(930 78)" filter="url(#cardShadow)">
    <!-- main card -->
    <rect x="0" y="0" width="560" height="284" rx="18" fill="rgba(255,255,255,0.08)" stroke="rgba(255,255,255,0.14)"/>
    <text x="24" y="44" font-family="ui-sans-serif, system-ui, -apple-system, Segoe UI, Roboto" font-size="16" fill="rgba(255,255,255,0.86)">
      Monthly cashflow (preview)
    </text>

    <!-- mini KPI pills -->
    <g transform="translate(24 62)">
      <rect x="0" y="0" width="160" height="42" rx="12" fill="rgba(255,255,255,0.06)" stroke="rgba(255,255,255,0.12)"/>
      <text x="14" y="26" font-family="ui-sans-serif, system-ui, -apple-system, Segoe UI, Roboto" font-size="14" fill="rgba(255,255,255,0.82)">
        Paid: Rp 12.4jt
      </text>

      <rect x="178" y="0" width="190" height="42" rx="12" fill="rgba(255,255,255,0.06)" stroke="rgba(255,255,255,0.12)"/>
      <text x="192" y="26" font-family="ui-sans-serif, system-ui, -apple-system, Segoe UI, Roboto" font-size="14" fill="rgba(255,255,255,0.82)">
        Outstanding: Rp 6.1jt
      </text>

      <rect x="386" y="0" width="150" height="42" rx="12" fill="rgba(255,255,255,0.06)" stroke="rgba(255,255,255,0.12)"/>
      <text x="400" y="26" font-family="ui-sans-serif, system-ui, -apple-system, Segoe UI, Roboto" font-size="14" fill="rgba(255,255,255,0.82)">
        Overdue: 2
      </text>
    </g>

    <!-- chart -->
    <g transform="translate(24 126)">
      <rect x="0" y="0" width="512" height="134" rx="14" fill="rgba(0,0,0,0.18)" stroke="rgba(255,255,255,0.10)"/>
      <path d="M22 106C62 86 96 96 128 78C160 60 200 70 230 56C260 42 296 48 324 36C352 24 390 34 420 22C452 10 488 22 496 18"
            stroke="url(#accent)" stroke-width="4" fill="none" stroke-linecap="round"/>
      <path d="M22 106C62 86 96 96 128 78C160 60 200 70 230 56C260 42 296 48 324 36C352 24 390 34 420 22C452 10 488 22 496 18"
            stroke="url(#accent)" stroke-width="12" opacity="0.10" fill="none" stroke-linecap="round"/>
      <g opacity="0.65">
        <circle cx="22" cy="106" r="4" fill="#FFFFFF"/>
        <circle cx="128" cy="78" r="4" fill="#FFFFFF"/>
        <circle cx="230" cy="56" r="4" fill="#FFFFFF"/>
        <circle cx="324" cy="36" r="4" fill="#FFFFFF"/>
        <circle cx="420" cy="22" r="4" fill="#FFFFFF"/>
        <circle cx="496" cy="18" r="4" fill="#FFFFFF"/>
      </g>
    </g>
  </g>

  <!-- Subtle invoice icon left -->
  <g transform="translate(88 148)" opacity="0.92">
    <rect x="0" y="0" width="120" height="150" rx="16" fill="rgba(255,255,255,0.08)" stroke="rgba(255,255,255,0.14)"/>
    <rect x="20" y="26" width="80" height="10" rx="5" fill="rgba(255,255,255,0.55)"/>
    <rect x="20" y="50" width="62" height="8" rx="4" fill="rgba(255,255,255,0.36)"/>
    <rect x="20" y="68" width="70" height="8" rx="4" fill="rgba(255,255,255,0.36)"/>
    <rect x="20" y="86" width="54" height="8" rx="4" fill="rgba(255,255,255,0.36)"/>
    <rect x="20" y="108" width="80" height="18" rx="9" fill="url(#accent)" opacity="0.9"/>
  </g>

  <!-- Footer hint -->
  <text x="56" y="392" font-family="ui-sans-serif, system-ui, -apple-system, Segoe UI, Roboto" font-size="14" fill="rgba(255,255,255,0.62)">
    Monitor pemasukan, piutang, dan invoice jatuh tempo — semua dari satu dashboard.
  </text>
</svg>
